HIERARCHY
ROOT Hips
{
	OFFSET 0.00 0.00 0.00
	CHANNELS 6 Xposition Yposition Zposition Yrotation Xrotation Zrotation
	JOINT LHipJoint
	{
		OFFSET	0.0000	0.0000	0.0000
		CHANNELS 3 Yrotation Xrotation Zrotation
		JOINT LeftUpLeg
		{
			OFFSET	1.0138	-0.0809	-0.0827
			CHANNELS 3 Yrotation Xrotation Zrotation
			JOINT LeftLeg
			{
				OFFSET	0.4110	-3.9095	0.3245
				CHANNELS 3 Yrotation Xrotation Zrotation
				JOINT LeftFoot
				{
					OFFSET	0.3810	-4.0555	-0.1470
					CHANNELS 3 Yrotation Xrotation Zrotation
					JOINT LeftToeBase
					{
						OFFSET	0.1396	-0.4462	1.3079
						CHANNELS 3 Yrotation Xrotation Zrotation
						End Site
						{
							OFFSET 0.0161 -0.0248 0.1809
						}
					}
				}
			}
		}
	}
	JOINT LowerBack
	{
		OFFSET	0.0000	0.7977	-0.3873
		CHANNELS 3 Yrotation Xrotation Zrotation
		JOINT Spine
		{
			OFFSET	0.0000	1.4131	0.1715
			CHANNELS 3 Yrotation Xrotation Zrotation
			JOINT Spine1
			{
				OFFSET	0.0000	1.4392	-0.1032
				CHANNELS 3 Yrotation Xrotation Zrotation
				JOINT LeftShoulder
				{
					OFFSET	0.2274	1.0382	0.4032
					CHANNELS 3 Yrotation Xrotation Zrotation
					JOINT LeftArm
					{
						OFFSET	1.4730	-0.2267	-0.0231
						CHANNELS 3 Yrotation Xrotation Zrotation
						JOINT LeftForeArm
						{
							OFFSET	1.6131	-1.8059	0.0081
							CHANNELS 3 Yrotation Xrotation Zrotation
							JOINT LeftHand
							{
								OFFSET	1.2197	-1.2423	1.6317
								CHANNELS 3 Yrotation Xrotation Zrotation
								JOINT LThumb
								{
									OFFSET	0.0109	-0.0753	0.4387
									CHANNELS 3 Yrotation Xrotation Zrotation
									End Site
									{
										OFFSET -0.2090 -0.0868 0.2097
									}
								}
								JOINT LeftFingerBase
								{
									OFFSET	0.1071	-0.1567	0.2607
									CHANNELS 3 Yrotation Xrotation Zrotation
									JOINT LeftHandFinger1
									{
										OFFSET	0.1706	-0.2492	0.6830
										CHANNELS 3 Yrotation Xrotation Zrotation
										End Site
										{
											OFFSET 0.0335 -0.1507 0.2071
										}
									}
								}
							}
						}
					}
				}
				JOINT Neck
				{
					OFFSET	0.0000	1.7498	0.2381
					CHANNELS 3 Yrotation Xrotation Zrotation
					JOINT Neck1
					{
						OFFSET	0.0000	0.5043	0.1959
						CHANNELS 3 Yrotation Xrotation Zrotation
						JOINT Head
						{
							OFFSET	0.0000	0.5044	0.1959
							CHANNELS 3 Yrotation Xrotation Zrotation
							End Site
							{
								OFFSET 0.0000 1.4798 -0.0693
							}
						}
					}
				}
				JOINT RightShoulder
				{
					OFFSET	-0.2274	1.0382	0.4032
					CHANNELS 3 Yrotation Xrotation Zrotation
					JOINT RightArm
					{
						OFFSET	-1.4730	-0.2267	-0.0231
						CHANNELS 3 Yrotation Xrotation Zrotation
						JOINT RightForeArm
						{
							OFFSET	-1.6131	-1.8059	0.0081
							CHANNELS 3 Yrotation Xrotation Zrotation
							JOINT RightHand
							{
								OFFSET	-1.2197	-1.2423	1.6317
								CHANNELS 3 Yrotation Xrotation Zrotation
								JOINT RThumb
								{
									OFFSET	-0.0109	-0.0753	0.4387
									CHANNELS 3 Yrotation Xrotation Zrotation
									End Site
									{
										OFFSET 0.2090 -0.0868 0.2097
									}
								}
								JOINT RightFingerBase
								{
									OFFSET	-0.1071	-0.1567	0.2607
									CHANNELS 3 Yrotation Xrotation Zrotation
									JOINT RightHandFinger1
									{
										OFFSET	-0.1706	-0.2492	0.6830
										CHANNELS 3 Yrotation Xrotation Zrotation
										End Site
										{
											OFFSET -0.0335 -0.1507 0.2071
										}
									}
								}
							}
						}
					}
				}
			}
		}
	}
	JOINT RHipJoint
	{
		OFFSET	0.0000	0.0000	0.0000
		CHANNELS 3 Yrotation Xrotation Zrotation
		JOINT RightUpLeg
		{
			OFFSET	-1.0138	-0.0809	-0.0827
			CHANNELS 3 Yrotation Xrotation Zrotation
			JOINT RightLeg
			{
				OFFSET	-0.4110	-3.9095	0.3245
				CHANNELS 3 Yrotation Xrotation Zrotation
				JOINT RightFoot
				{
					OFFSET	-0.3810	-4.0555	-0.1470
					CHANNELS 3 Yrotation Xrotation Zrotation
					JOINT RightToeBase
					{
						OFFSET	-0.1396	-0.4462	1.3079
						CHANNELS 3 Yrotation Xrotation Zrotation
						End Site
						{
							OFFSET -0.0161 -0.0248 0.1809
						}
					}
				}
			}
		}
	}
}
MOTION
Frames: 15
Frame Time: 0.0333333
0.4087 11.1875 -0.5703 1.9193 16.2541 -5.3394 0.0000 -0.0000 0.0000 73.4577 -84.2219 -58.0441 151.9867 73.1827 146.2341 -1.4744 -12.7731 6.5677 -0.0000 -5.9555 0.0000 0.0000 -0.0000 0.0000 2.2153 7.3956 1.0729 4.3590 14.7686 2.0301 -2.8897 3.4196 35.2536 -26.1141 -12.2889 62.8355 -5.5379 -4.9980 -1.6773 45.8131 -29.0521 -19.1145 21.7290 -5.0567 7.7415 -5.3441 0.4781 -2.6018 -6.2535 -4.1243 -2.3304 -2.5729 18.8744 -4.3133 -2.3965 19.0078 -3.7198 -19.7404 -48.6474 23.5014 13.4486 5.2436 -38.5932 -25.2669 -14.7662 -19.0584 -3.1965 4.7448 1.8757 -27.8485 -12.3639 -4.5255 -18.6883 -7.7577 -3.5427 10.6017 0.2506 7.2128 4.1794 -6.8534 0.5757 0.0000 -0.0000 0.0000 168.1653 -65.0876 -173.7357 -169.4211 54.9072 -162.2519 -0.7172 -9.4175 1.5565 0.0000 -8.7383 0.0000 
0.4820 10.9228 -0.4769 -0.3663 14.2258 -6.2278 0.0000 -0.0000 0.0000 28.4907 -73.3227 -9.8841 83.1559 81.9386 76.1164 -0.9574 -7.5997 4.5280 -0.0000 -5.5375 -0.0000 0.0000 -0.0000 0.0000 2.9484 6.9850 1.8383 6.0075 13.8952 3.6699 -0.3492 3.0092 37.3183 -23.4277 -5.9440 54.9480 -8.7282 -8.4833 -1.2383 45.0095 -33.8183 -17.2221 21.7593 -5.0327 7.7775 -5.4735 2.4435 -3.0575 -6.4528 -3.9078 -2.4907 -2.8799 18.9065 -4.5535 -2.7574 19.0659 -3.8612 -17.9522 -47.0680 20.7376 14.8692 5.4283 -37.9028 -22.8407 -13.5284 -21.9351 -2.7628 4.2622 1.9010 -27.9374 -15.0882 -6.0291 -18.9271 -7.5388 -3.8453 10.4958 0.0927 7.0727 3.4084 -7.7108 -0.0193 0.0000 -0.0000 0.0000 175.6118 -63.7548 -178.8781 -167.3731 50.0675 -161.7361 -0.9977 -6.5227 0.9959 0.0000 -9.9831 0.0000 
0.5755 10.6534 -0.3644 -2.0412 12.2513 -6.7560 0.0000 -0.0000 0.0000 21.5495 -59.8747 -2.1182 12.3940 68.8940 4.8377 -0.4417 1.0080 2.0229 -0.0000 -5.6615 -0.0000 0.0000 -0.0000 0.0000 3.3177 6.3130 2.4564 7.0643 12.4670 5.2892 2.6444 2.2591 38.5977 -22.1895 -0.0346 46.2662 -13.6790 -13.6929 -0.1875 42.3534 -39.4779 -11.0373 21.7025 -5.0766 7.7110 -5.5403 2.8324 -3.0603 -6.7006 -3.6403 -2.6904 -3.0648 19.3657 -4.5621 -2.9789 19.5337 -3.7957 -15.5195 -44.8882 17.3793 16.1067 5.5776 -37.5342 -20.7384 -8.1530 -24.1715 -0.9437 2.2311 1.9669 -27.8874 -17.7699 -10.1883 -19.2676 -7.2322 -4.2723 9.4213 -0.3798 5.9397 2.4696 -8.7769 -0.7375 0.0000 -0.0000 0.0000 -179.5859 -72.0270 177.1533 -165.5204 51.0728 -159.5719 -1.1401 -3.4170 1.3588 0.0000 -10.5136 0.0000 
0.6712 10.3261 -0.1718 -2.7079 10.1284 -6.9536 0.0000 -0.0000 0.0000 16.7761 -45.1607 0.4046 0.6030 47.8186 -4.1425 -0.3563 10.9585 -2.7527 0.0000 -5.0751 -0.0000 0.0000 -0.0000 0.0000 3.4952 5.4151 2.7527 7.7961 10.5611 6.6175 5.4760 1.4306 38.1765 -20.7007 4.3847 37.5875 -20.7376 -20.5318 2.0268 38.3581 -44.5595 -2.9899 21.6030 -5.1556 7.5924 -5.9297 1.9894 -3.1988 -6.8636 -3.4653 -2.8220 -3.1837 20.0816 -4.1641 -3.0899 20.2366 -3.3430 -13.3329 -41.8234 14.3824 16.8126 5.6215 -37.1570 -21.0160 0.3859 -24.6602 2.5043 -1.6269 1.9145 -28.7181 -20.0876 -14.3622 -19.6927 -6.8585 -4.7982 7.1721 -0.4258 4.1391 1.2543 -10.1927 -1.6559 0.0000 -0.0000 0.0000 -149.5256 -87.7830 146.4635 -161.1714 57.4017 -153.9595 -1.0866 -0.6981 2.6094 -0.0000 -9.4443 0.0000 
0.7289 9.8413 0.0986 -1.9935 7.4433 -7.0637 0.0000 -0.0000 0.0000 12.3322 -30.7872 0.5558 -0.5499 29.7897 -0.2189 -0.8245 16.6224 -6.9099 -0.0000 -4.9729 0.0000 0.0000 -0.0000 0.0000 3.7072 4.5564 2.6299 8.2943 8.7551 7.1089 7.5690 0.9164 36.0244 -16.4337 7.5295 29.9129 -29.6456 -27.9483 5.8482 34.7686 -46.7345 1.5075 21.7727 -5.0249 7.7907 -5.8003 1.8150 -3.3944 -6.9068 -3.4191 -2.8569 -3.2286 20.3231 -3.0868 -3.0708 20.4411 -2.2508 -12.0463 -37.5851 12.7110 16.8150 5.4494 -35.9713 -23.8526 9.6365 -23.5417 6.3826 -5.9282 1.5798 -31.0235 -21.2014 -16.5032 -20.1813 -6.4410 -5.3937 5.0826 0.6368 3.1600 0.1355 -11.5313 -2.4894 0.0000 -0.0000 0.0000 -11.3243 -72.3722 6.7522 -146.2774 66.7821 -138.6389 -0.8524 1.5428 4.4988 -0.0000 -7.9647 0.0000 
0.7057 9.2124 0.3424 0.6863 4.7653 -7.2085 0.0000 -0.0000 0.0000 9.9183 -22.1085 -0.2446 -0.0161 22.8736 4.1281 -0.3707 13.0627 -5.5442 -0.0000 -7.2020 0.0000 0.0000 -0.0000 0.0000 3.8630 4.0152 2.1876 8.3328 7.6757 6.4300 8.4317 0.9361 32.3647 -8.6208 9.7037 23.5914 -38.8092 -34.0939 10.7210 32.9247 -45.3580 -0.0012 22.5872 -4.4039 8.7475 -4.2494 4.2547 -3.5900 -6.9096 -3.4160 -2.8592 -3.2203 19.1876 -1.4694 -2.9767 19.2561 -0.6919 -12.2643 -32.5023 13.3682 15.5860 4.8153 -33.0231 -27.2718 15.8292 -20.5941 8.8345 -8.5979 1.2205 -35.5975 -20.4318 -16.6082 -20.7073 -6.0053 -6.0244 4.5929 2.5320 3.7563 -0.3986 -12.1823 -2.8830 0.0000 -0.0000 0.0000 -12.6526 -53.2661 5.9205 -104.6459 74.0831 -96.9558 -0.9856 2.0478 6.6927 -0.0000 -8.6629 -0.0000 
0.5837 8.5407 0.4638 5.4302 3.4949 -7.7280 0.0000 -0.0000 0.0000 9.1109 -26.0316 0.2430 -1.0036 35.9729 3.7220 -0.4009 -6.2129 2.9620 0.0030 -8.9721 -0.2630 0.0000 -0.0000 0.0000 3.7032 3.8626 1.8505 7.6860 7.4901 5.0068 7.5693 1.5354 27.0814 1.0163 9.9499 17.4479 -44.7099 -37.3019 14.2461 31.6975 -41.8346 -3.8742 23.9313 -3.4359 10.3089 -1.8882 9.2724 -3.8402 -6.9403 -3.3832 -2.8840 -3.2919 16.4090 -0.0251 -3.0095 16.4393 0.6173 -14.2865 -27.7429 16.5064 12.7564 3.7414 -27.6127 -28.8844 15.6609 -14.9017 8.5961 -8.3406 1.2603 -43.2973 -17.5909 -14.8957 -21.2373 -5.5800 -6.6500 4.7233 3.6209 4.3680 -0.3988 -12.1825 -2.8832 0.0000 -0.0000 0.0000 -14.9561 -37.2584 7.2490 -50.0426 69.9080 -42.0166 -4.0749 -0.5839 8.8099 -0.0000 -12.1035 -0.0000 
0.3915 7.9165 0.4414 11.2860 4.4241 -8.7613 0.0000 -0.0000 0.0000 6.6628 -36.6456 3.0088 -6.1966 52.8029 -2.1111 -2.0505 -19.3236 5.0858 -0.0000 -5.7207 -0.0000 0.0000 -0.0000 0.0000 3.2901 3.9863 1.6376 6.6798 7.8499 3.7540 4.5495 2.4826 20.0960 9.6263 7.0349 9.7368 -43.5659 -36.7230 13.5427 31.3416 -38.2821 -7.3093 25.1110 -2.6432 11.6615 0.6797 13.4027 -3.2170 -6.9537 -3.3689 -2.8947 -3.5877 12.7367 0.5530 -3.3545 12.7540 1.0377 -17.6402 -24.4343 20.7856 9.2930 2.9082 -19.8689 -27.7104 8.7312 -7.8217 5.3739 -4.8170 1.6947 -53.2365 -12.9797 -10.4814 -21.7323 -5.1948 -7.2259 3.1856 3.1116 3.0373 -0.3650 -12.1411 -2.8584 0.0000 -0.0000 0.0000 -15.5655 -27.4300 10.1076 -30.0347 59.4975 -21.1217 -9.6530 -7.3424 10.2655 -0.0000 -15.1171 0.0000 
0.2221 7.4082 0.3353 15.9292 6.7763 -9.8084 0.0000 -0.0000 0.0000 2.2466 -47.5179 6.7093 -7.5296 64.6177 -5.6622 -6.9439 -23.9827 7.6352 0.0000 -4.9285 -0.0000 0.0000 -0.0000 0.0000 3.0783 4.1853 1.4748 6.1549 8.2887 3.1417 -0.3938 3.1265 12.0869 15.0562 1.1843 0.9258 -34.9566 -31.6893 8.5728 35.9564 -35.0409 -12.8661 25.6013 -2.3270 12.2210 3.3911 13.4068 -1.4016 -6.8252 -3.5065 -2.7909 -4.0795 9.4153 0.2093 -3.9513 9.4395 0.5809 -21.0541 -22.6122 24.1135 7.4705 2.7542 -11.2643 -22.8299 -1.1727 -2.6204 -0.6754 1.9309 1.9711 -61.4702 -8.0692 -2.5853 -22.1709 -4.8628 -7.7297 0.0038 2.2736 0.5297 -0.5415 -12.3577 -2.9879 0.0000 -0.0000 0.0000 -15.6726 -26.2100 14.0162 -30.5209 56.9993 -20.9864 -17.8804 -25.6759 13.9518 0.0000 -13.8882 -0.0000 
0.1288 7.1228 0.1952 17.4672 8.9774 -9.9931 0.0000 -0.0000 0.0000 0.2692 -55.0070 9.1611 -10.2264 70.1824 -10.3924 -9.9679 -23.8586 9.8346 -0.0000 -4.9285 -0.0000 0.0000 -0.0000 0.0000 3.2849 4.3270 1.3044 6.5393 8.5720 2.8690 -5.9586 2.9634 4.4500 15.7545 -5.4258 -6.3221 -22.3277 -21.9596 2.6311 48.4866 -29.7632 -23.4860 25.5786 -2.3397 12.1970 4.3865 11.7042 -0.4823 -6.5662 -3.7851 -2.5821 -4.5258 7.2638 -0.5813 -4.4894 7.3032 -0.2653 -23.1534 -21.4144 25.1037 8.7411 2.6205 -3.9951 -12.3831 -8.8318 -0.5691 -8.7844 10.8602 1.2281 -63.2601 -4.7358 9.4976 -22.5776 -4.5625 -8.1917 -2.7566 2.3606 -1.1029 -0.5944 -12.4227 -3.0266 0.0000 -0.0000 0.0000 -16.5662 -29.4065 16.3359 -31.9056 59.0101 -22.5870 -23.5231 -35.3527 16.5694 -0.0000 -9.8171 0.0000 
0.0827 7.0560 0.0473 16.6025 10.0951 -9.3238 0.0000 -0.0000 0.0000 2.6200 -58.0437 8.2953 -12.5301 70.5061 -13.8667 -10.8173 -22.3309 10.9987 0.0000 -4.9285 0.0000 0.0000 -0.0000 0.0000 3.6152 4.3871 1.1073 7.2078 8.6879 2.5829 -10.6723 2.2284 -1.5078 10.4233 -10.0246 -10.6285 -9.3414 -9.1432 -1.1322 63.7580 -20.2444 -35.2176 25.4796 -2.4025 12.0847 2.0521 13.3034 -2.4936 -6.3773 -3.9897 -2.4300 -4.6522 6.2232 -1.3298 -4.6587 6.2760 -1.0476 -23.4358 -20.1403 24.0311 12.1093 2.0146 0.6118 2.5164 -12.3272 -0.1420 -16.4005 18.6617 -0.5730 -56.9433 -3.1820 24.3694 -23.0029 -4.2562 -8.6693 -4.0150 3.2352 -1.4208 -0.0437 -11.7489 -2.6218 0.0000 -0.0000 0.0000 -17.3842 -32.7424 16.5477 -31.8163 61.1170 -22.7729 -24.5362 -35.8738 16.9125 -0.0000 -6.8782 -0.0000 
0.0448 7.1360 -0.0716 15.6624 10.3126 -8.5038 0.0000 -0.0000 0.0000 5.0008 -57.6826 6.3599 -12.0426 67.8400 -13.4112 -10.0580 -20.3893 10.5753 0.0000 -4.9285 0.0000 0.0000 -0.0000 0.0000 3.5507 4.3640 0.9822 7.1172 8.6408 2.4342 -14.0317 1.4493 -5.1532 0.5405 -11.6720 -13.0984 1.9690 3.3769 -1.9377 72.6847 -9.3356 -42.1800 25.4757 -2.4055 12.0797 -2.2843 18.1166 -6.4469 -6.3696 -3.9981 -2.4238 -4.3747 5.6882 -1.8186 -4.3942 5.7426 -1.5824 -22.4755 -18.8319 22.3135 15.2802 1.3759 3.0038 16.8740 -12.9914 -0.1238 -19.2280 21.3406 -1.4892 -45.0410 -4.0457 34.2581 -23.4603 -3.9351 -9.1776 -4.2129 4.5772 -0.9632 1.2218 -10.2311 -1.6803 0.0000 -0.0000 0.0000 -17.8682 -33.7322 15.8288 -31.0381 60.2590 -21.5985 -21.7972 -35.0541 14.3130 0.0000 -7.2829 -0.0000 
0.0102 7.3136 -0.1647 15.8362 10.3527 -8.0300 0.0000 -0.0000 0.0000 4.7133 -55.4664 5.1929 -10.4874 63.0913 -10.8176 -8.0199 -18.0130 8.9081 0.0000 -4.9285 -0.0000 0.0000 -0.0000 0.0000 2.9808 4.2262 1.0982 6.0095 8.3703 2.6643 -16.3156 0.8953 -6.5658 -9.7175 -11.7412 -14.7890 9.9723 12.1252 -1.0148 71.2459 -1.6592 -45.3001 25.5081 -2.3850 12.1164 -5.3268 22.0221 -9.1117 -6.4511 -3.9097 -2.4894 -3.8515 5.1669 -2.0319 -3.8835 5.2061 -1.8593 -21.1096 -17.9589 20.9703 16.7787 1.0746 4.4608 27.2902 -12.1543 -0.8057 -15.4802 17.7621 -0.3025 -31.5100 -5.9094 32.4309 -23.9005 -3.6341 -9.6618 -3.9128 6.4239 -0.0923 2.9586 -8.2186 -0.3643 0.0000 -0.0000 0.0000 -18.6576 -32.4850 15.0798 -27.5490 56.8498 -17.1690 -19.3419 -33.1581 11.1952 -0.0000 -7.2829 -0.0000 
-0.0090 7.5421 -0.2421 16.0659 10.5297 -7.7205 0.0000 -0.0000 0.0000 3.7831 -52.3101 4.2936 -8.8752 56.9047 -7.8112 -5.7577 -15.2196 6.9997 0.0000 -4.9285 -0.0000 0.0000 -0.0000 0.0000 2.3176 3.9651 1.3301 4.7152 7.8559 3.0981 -17.7087 0.6361 -6.4305 -17.6130 -11.6649 -15.1788 13.5089 15.7922 -0.2295 61.5336 0.5997 -47.5655 25.5169 -2.3793 12.1265 -5.5375 23.0642 -9.1838 -6.5081 -3.8479 -2.5353 -3.3437 4.6364 -1.9867 -3.3903 4.6522 -1.8741 -19.6808 -17.7303 19.8521 16.8841 1.0354 5.5460 34.6688 -10.0315 -1.9037 -8.4111 10.4596 1.2897 -18.6510 -4.9453 22.6954 -24.2425 -3.4054 -10.0348 -3.3946 8.3638 0.8970 4.8191 -6.1543 1.0730 0.0000 -0.0000 0.0000 -19.2828 -30.2407 14.3752 -23.5841 51.6740 -12.1250 -17.1655 -30.4505 8.0204 0.0000 -7.2829 -0.0000 
0.0008 7.7884 -0.3029 14.6830 10.5465 -7.3179 0.0000 -0.0000 0.0000 4.6508 -48.2559 3.0781 -7.8760 49.8359 -5.6814 -3.6011 -12.3744 5.5630 0.0000 -4.9285 -0.0000 0.0000 -0.0000 0.0000 2.0519 3.6218 1.4773 4.1999 7.1730 3.3527 -18.1152 0.6548 -5.6745 -23.6597 -11.2801 -13.8756 13.6089 15.8935 -0.2041 48.3354 -1.9464 -48.6345 25.5082 -2.3848 12.1167 -4.4920 22.2661 -8.2283 -6.5262 -3.8284 -2.5498 -3.0223 4.3912 -1.6807 -3.0741 4.3902 -1.6017 -18.0755 -17.8666 18.2542 16.7857 1.0620 5.9537 41.1264 -6.3314 -2.1803 -1.7073 3.0847 1.9471 -8.1497 -1.7951 13.4753 -24.4318 -3.2809 -10.2398 -2.8131 9.9178 1.7697 6.6136 -4.2530 2.4839 0.0000 -0.0000 0.0000 -18.8219 -27.5612 13.4843 -19.9991 45.1561 -7.8835 -14.7833 -26.8760 4.8595 -0.0000 -7.2829 -0.0000 
